#!OML:ASF H:\Punching\Project 1\Capture day 1\Session 1\female.ASF
:FULLY-SPECIFIED
:DEGREES
2197
root 2.72313 15.5632 7.15197 16.3862 -3.48203 -5.11788
lowerback -1.90934 1.35283 3.16583
upperback -6.37618 1.89101 0.786475
thorax -5.46017 0.805176 -1.00714
lowerneck -12.548 -3.21847 4.51774
upperneck 23.1996 -5.11868 -1.80278
head 9.18947 -2.20089 -1.96065
rclavicle 5.37961e-015 2.20651e-014
rhumerus -46.7512 39.7164 -117.017
rradius 84.1912
rwrist -20.1573
rhand -1.01018 -0.827007
rfingers 7.12502
rthumb 24.6224 -29.2632
lclavicle 5.37961e-015 2.20651e-014
lhumerus -47.237 -37.6299 112.359
lradius 114.309
lwrist 2.73002
lhand -20.9118 5.97997
lfingers 7.12502
lthumb 5.45953 35.8896
rfemur -17.4928 -3.18808 22.8862
rtibia 30.0915
rfoot -21.4618 -20.8081
rtoes -4.8685
lfemur -21.0985 -7.93566 -17.3969
ltibia 32.4074
lfoot -25.2298 21.84
ltoes 3.10682
2198
root 2.73101 15.5652 7.13952 16.4544 -3.63193 -5.32954
lowerback -2.06135 1.30946 3.28303
upperback -6.29627 1.83045 0.915322
thorax -5.29263 0.775991 -0.932635
lowerneck -12.5666 -3.24085 4.41252
upperneck 22.9296 -5.10336 -1.87941
head 9.09937 -2.21759 -1.9616
rclavicle -1.06474e-014 -1.86858e-014
rhumerus -46.2651 40.8637 -116.589
rradius 83.8634
rwrist -18.3598
rhand -1.40627 0.296827
rfingers 7.12502
rthumb 24.2427 -28.1906
lclavicle -1.06474e-014 -1.86858e-014
lhumerus -46.7472 -37.6638 112.417
lradius 114.056
lwrist 2.53029
lhand -21.0027 6.01852
lfingers 7.12502
lthumb 5.37178 35.9304
rfemur -17.5339 -3.11814 23.1249
rtibia 29.8592
rfoot -21.3365 -20.9384
rtoes -4.42114
lfemur -21.268 -7.77397 -17.2053
ltibia 32.5992
lfoot -25.343 21.7709
ltoes 3.25234
2199
root 2.73773 15.5681 7.12771 16.5278 -3.78535 -5.57336
lowerback -2.2062 1.2731 3.43164
upperback -6.21826 1.77929 1.04895
thorax -5.13048 0.750065 -0.871555
lowerneck -12.5653 -3.267 4.31571
upperneck 22.626 -5.09413 -1.95542
head 8.99393 -2.23673 -1.963
rclavicle -2.90723e-015 -6.16232e-015
rhumerus -45.6973 41.9075 -116.112
rradius 83.6375
rwrist -17.3034
rhand -1.60521 1.18041
rfingers 7.12502
rthumb 24.052 -27.3324
lclavicle -2.90723e-015 -6.16232e-015
lhumerus -46.2508 -37.7136 112.437
lradius 113.772
lwrist 2.16111
lhand -21.1185 6.00483
lfingers 7.12502
lthumb 5.25996 35.9196
rfemur -17.679 -3.06581 23.3688
rtibia 29.8238
rfoot -21.1439 -20.9267
rtoes -4.27687
lfemur -21.4285 -7.59224 -16.9743
ltibia 32.7791
lfoot -25.45 21.6962
ltoes 3.37729
2200
root 2.74346 15.5712 7.1163 16.5988 -3.96412 -5.82184
lowerback -2.30718 1.25113 3.60631
upperback -6.15683 1.74831 1.15663
thorax -5.00888 0.731557 -0.853787
lowerneck -12.5502 -3.29836 4.25104
upperneck 22.3101 -5.09988 -2.02789
head 8.88102 -2.25971 -1.96939
rclavicle -1.91827e-014 -8.15017e-015
rhumerus -45.1035 42.8435 -115.677
rradius 83.5481
rwrist -17.1146
rhand -1.74759 1.69658
rfingers 7.12502
rthumb 23.9155 -26.8342
lclavicle -1.91827e-014 -8.15017e-015
lhumerus -45.7983 -37.7982 112.423
lradius 113.478
lwrist 1.64603
lhand -21.2388 5.93153
lfingers 7.12502
lthumb 5.14374 35.8491
rfemur -17.9277 -3.02496 23.5851
rtibia 29.9923
rfoot -20.903 -20.78
rtoes -4.39575
lfemur -21.5629 -7.39048 -16.7404
ltibia 32.9303
lfoot -25.5452 21.6279
ltoes 3.48585
2201
root 2.74852 15.5748 7.10524 16.6651 -4.1928 -6.038
lowerback -2.38316 1.24166 3.73918
upperback -6.09893 1.73393 1.24997
thorax -4.90518 0.722727 -0.828633
lowerneck -12.5142 -3.32983 4.2051
upperneck 21.9646 -5.10665 -2.11029
head 8.75373 -2.28298 -1.98095
rclavicle 1.1045e-014 7.55382e-015
rhumerus -44.4965 43.7349 -115.288
rradius 83.6204
rwrist -17.8531
rhand -1.91317 1.75474
rfingers 7.12502
rthumb 23.7567 -26.7967
lclavicle 1.1045e-014 7.55382e-015
lhumerus -45.3622 -37.8959 112.383
lradius 113.184
lwrist 1.03307
lhand -21.3471 5.80996
lfingers 7.12502
lthumb 5.03919 35.73
rfemur -18.2899 -3.00855 23.7341
rtibia 30.3804
rfoot -20.632 -20.483
rtoes -4.73215
lfemur -21.6566 -7.17272 -16.5511
ltibia 33.0286
lfoot -25.6152 21.5855
ltoes 3.57028
2202
root 2.75252 15.5787 7.09434 16.7054 -4.472 -6.1892
lowerback -2.36497 1.24598 3.83656
upperback -6.07598 1.74138 1.28489
thorax -4.88998 0.723087 -0.847052
lowerneck -12.4435 -3.36645 4.20279
upperneck 21.6281 -5.13155 -2.18348
head 8.6223 -2.30988 -1.99767
rclavicle -1.27222e-014 -1.8487e-014
rhumerus -43.9315 44.5205 -115.031
rradius 83.8566
rwrist -19.4847
rhand -2.18738 1.34663
rfingers 7.12502
rthumb 23.4937 -27.2388
lclavicle -1.27222e-014 -1.8487e-014
lhumerus -45.0409 -38.0364 112.335
lradius 112.921
lwrist 0.396117
lhand -21.4403 5.65677
lfingers 7.12502
lthumb 4.94918 35.579
rfemur -18.7522 -3.01874 23.7891
rtibia 31.0056
rfoot -20.347 -20.0613
rtoes -5.25028
lfemur -21.6771 -6.95002 -16.4425
ltibia 33.049
lfoot -25.6497 21.5714
ltoes 3.63499
2203
root 2.75538 15.5831 7.08359 16.7123 -4.80601 -6.24679
lowerback -2.27208 1.26137 3.85367
upperback -6.07109 1.76572 1.26552
thorax -4.93554 0.732935 -0.879124
lowerneck -12.3502 -3.4071 4.23212
upperneck 21.2977 -5.17063 -2.24699
head 8.48844 -2.33966 -2.01721
rclavicle -6.78353e-015 1.05356e-014
rhumerus -43.3792 45.2209 -114.863
rradius 84.2463
rwrist -21.8923
rhand -2.61891 0.529476
rfingers 7.12502
rthumb 23.0797 -28.1083
lclavicle -6.78353e-015 1.05356e-014
lhumerus -44.8025 -38.2283 112.279
lradius 112.699
lwrist -0.201686
lhand -21.5249 5.48978
lfingers 7.12502
lthumb 4.86751 35.4139
rfemur -19.3155 -3.05577 23.7232
rtibia 31.8733
rfoot -20.0785 -19.5303
rtoes -5.83003
lfemur -21.611 -6.73089 -16.4473
ltibia 32.9714
lfoot -25.6327 21.5942
ltoes 3.6643
2204
root 2.75674 15.5878 7.07296 16.6845 -5.1872 -6.20113
lowerback -2.15722 1.27787 3.73366
upperback -6.05164 1.79039 1.22994
thorax -4.98069 0.74912 -0.852074
lowerneck -12.2509 -3.44582 4.25734
upperneck 20.9577 -5.20563 -2.31179
head 8.351 -2.36802 -2.03548
rclavicle 2.34939e-014 -3.97569e-016
rhumerus -42.7769 45.8927 -114.682
rradius 84.7627
rwrist -24.8868
rhand -3.1777 -0.569395
rfingers 7.12502
rthumb 22.5434 -29.2733
lclavicle 2.34939e-014 -3.97569e-016
lhumerus -44.5665 -38.4522 112.216
lradius 112.517
lwrist -0.72046
lhand -21.6118 5.31961
lfingers 7.12502
lthumb 4.78361 35.2456
rfemur -19.978 -3.1104 23.5314
rtibia 32.9696
rfoot -19.8167 -18.9209
rtoes -6.41688
lfemur -21.459 -6.52331 -16.5721
ltibia 32.7911
lfoot -25.5564 21.6521
ltoes 3.64849
2205
root 2.75644 15.5927 7.06271 16.6215 -5.59936 -6.05747
lowerback -2.01533 1.29414 3.49443
upperback -6.02482 1.8135 1.17356
thorax -5.03568 0.769555 -0.780763
lowerneck -12.1572 -3.48342 4.27646
upperneck 20.634 -5.24032 -2.3687
head 8.22115 -2.3954 -2.05048
rclavicle -1.01877e-014 1.98785e-016
rhumerus -42.1134 46.5079 -114.468
rradius 85.3636
rwrist -28.2527
rhand -3.83653 -1.78664
rfingers 7.12502
rthumb 21.9109 -30.5659
lclavicle -1.01877e-014 1.98785e-016
lhumerus -44.3461 -38.7277 112.151
lradius 112.376
lwrist -1.13664
lhand -21.7273 5.15245
lfingers 7.12502
lthumb 4.67208 35.0809
rfemur -20.7267 -3.18107 23.2244
rtibia 34.2606
rfoot -19.5532 -18.2559
rtoes -6.95118
lfemur -21.227 -6.33322 -16.8072
ltibia 32.5126
lfoot -25.422 21.7393
ltoes 3.58988
2206
root 2.75396 15.5976 7.05237 16.5355 -6.0296 -5.84335
lowerback -1.86551 1.31003 3.15024
upperback -5.98767 1.83405 1.11434
thorax -5.08715 0.793836 -0.653987
lowerneck -12.0782 -3.52155 4.27466
upperneck 20.3332 -5.27463 -2.41632
head 8.10306 -2.42263 -2.05976
rclavicle 2.18912e-014 2.38542e-015
rhumerus -41.3555 47.0653 -114.169
rradius 86.0048
rwrist -31.7243
rhand -4.52029 -2.96467
rfingers 7.12502
rthumb 21.2543 -31.8193
lclavicle 2.18912e-014 2.38542e-015
lhumerus -44.1214 -39.0534 112.088
lradius 112.271
lwrist -1.46507
lhand -21.8893 4.989
lfingers 7.12502
lthumb 4.51567 34.9209
rfemur -21.5567 -3.24594 22.8381
rtibia 35.6986
rfoot -19.2696 -17.5584
rtoes -7.35355
lfemur -20.9426 -6.1581 -17.1145
ltibia 32.155
lfoot -25.2356 21.8467
ltoes 3.50171
2207
root 2.74948 15.6022 7.0435 16.4254 -6.4475 -5.57577
lowerback -1.73113 1.32061 2.73026
upperback -5.93302 1.84446 1.05921
thorax -5.11428 0.8173 -0.479909
lowerneck -12.0236 -3.56395 4.24422
upperneck 20.0642 -5.31328 -2.4518
head 8.0014 -2.45205 -2.06209
rclavicle -1.19271e-015 1.19271e-015
rhumerus -40.4872 47.5741 -113.762
rradius 86.6421
rwrist -35.0201
rhand -5.18773 -4.01665
rfingers 7.12502
rthumb 20.613 -32.9422
lclavicle -1.19271e-015 1.19271e-015
lhumerus -43.8826 -39.4326 112.027
lradius 112.194
lwrist -1.73868
lhand -22.1216 4.8182
lfingers 7.12502
lthumb 4.29133 34.7547
rfemur -22.4313 -3.33578 22.3964
rtibia 37.2293
rfoot -18.9519 -16.8237
rtoes -7.62086
lfemur -20.6098 -6.00419 -17.4725
ltibia 31.739
lfoot -25.0181 21.9568
ltoes 3.39629
2208
root 2.74268 15.6065 7.03622 16.2945 -6.83567 -5.28933
lowerback -1.54632 1.3361 2.32717
upperback -5.90447 1.86157 0.969413
thorax -5.19653 0.841577 -0.35281
lowerneck -11.9912 -3.62035 4.22145
upperneck 19.8728 -5.38211 -2.45481
head 7.92974 -2.49047 -2.06035
rclavicle 5.34234e-016 -1.53064e-014
rhumerus -39.5684 47.9602 -113.34
rradius 87.2354
rwrist -37.8323
rhand -5.86533 -4.86087
rfingers 7.12502
rthumb 19.9618 -33.8556
lclavicle 5.34234e-016 -1.53064e-014
lhumerus -43.7362 -39.8977 111.98
lradius 112.151
lwrist -1.99823
lhand -22.431 4.62442
lfingers 7.12502
lthumb 3.99254 34.5668
rfemur -23.3237 -3.44255 21.9419
rtibia 38.7996
rfoot -18.5866 -16.0669
rtoes -7.78054
lfemur -20.2423 -5.86422 -17.838
ltibia 31.2888
lfoot -24.7887 22.0525
ltoes 3.29514
2209
root 2.73363 15.6106 7.03128 16.1425 -7.17737 -5.00664
lowerback -1.37741 1.34431 1.91872
upperback -5.85994 1.867 0.895367
thorax -5.2544 0.861237 -0.205509
lowerneck -11.9744 -3.68161 4.17751
upperneck 19.7073 -5.45651 -2.44717
head 7.87042 -2.53152 -2.05319
rclavicle -2.03754e-015 6.55989e-015
rhumerus -38.5624 48.3496 -112.831
rradius 87.7529
rwrist -39.9028
rhand -6.58556 -5.43556
rfingers 7.12502
rthumb 19.2694 -34.5009
lclavicle -2.03754e-015 6.55989e-015
lhumerus -43.5791 -40.3997 111.93
lradius 112.124
lwrist -2.28549
lhand -22.8163 4.39235
lfingers 7.12502
lthumb 3.62046 34.3413
rfemur -24.2039 -3.57607 21.501
rtibia 40.3608
rfoot -18.1802 -15.2859
rtoes -7.80638
lfemur -19.8431 -5.73683 -18.1842
ltibia 30.8223
lfoot -24.562 22.1198
ltoes 3.2057
2210
root 2.7223 15.6146 7.02897 15.9683 -7.46015 -4.74573
lowerback -1.2479 1.33643 1.50739
upperback -5.78317 1.84944 0.859135
thorax -5.25793 0.87121 -0.0152841
lowerneck -11.9712 -3.74032 4.10841
upperneck 19.5515 -5.52227 -2.4426
head 7.81783 -2.57031 -2.04269
rclavicle -3.36692e-015 -1.86858e-014
rhumerus -37.4607 48.8229 -112.216
rradius 88.1711
rwrist -41.0539
rhand -7.39922 -5.6858
rfingers 7.12502
rthumb 18.4868 -34.8273
lclavicle -3.36692e-015 -1.86858e-014
lhumerus -43.3639 -40.901 111.851
lradius 112.107
lwrist -2.63496
lhand -23.26 4.11777
lfingers 7.12502
lthumb 3.19206 34.0736
rfemur -25.0466 -3.74049 21.0945
rtibia 41.8728
rfoot -17.7283 -14.4908
rtoes -7.74471
lfemur -19.4149 -5.61676 -18.4897
ltibia 30.3582
lfoot -24.3516 22.1466
ltoes 3.12223
